<svg width="500" height="400" viewBox="0 0 500 400" xmlns="http://www.w3.org/2000/svg">
    <defs>
        <linearGradient id="cloudGradient" x1="0%" y1="0%" x2="100%" y2="100%">
            <stop offset="0%" style="stop-color:#4facfe;stop-opacity:1" />
            <stop offset="100%" style="stop-color:#00f2fe;stop-opacity:1" />
        </linearGradient>
        <linearGradient id="leafGradient" x1="0%" y1="0%" x2="100%" y2="100%">
            <stop offset="0%" style="stop-color:#0ba360;stop-opacity:1" />
            <stop offset="100%" style="stop-color:#3cba92;stop-opacity:1" />
        </linearGradient>
    </defs>

    <path d="M150,150 a40,40 0 0,1 80,0 a50,50 0 0,1 90,10 a40,40 0 0,1 10,80 L150,240 a40,40 0 0,1 0,-80 Z" fill="url(#cloudGradient)" />

    <path d="M130,220 C100,180 120,130 160,110 C140,140 150,180 180,200" fill="url(#leafGradient)" />
    <path d="M110,200 C80,170 90,130 120,110 C110,140 120,170 140,190" fill="url(#leafGradient)" opacity="0.6"/>

    <text x="250" y="300" font-family="Segoe UI, Helvetica, Arial, sans-serif" font-size="38" font-weight="bold" fill="#1e272e" text-anchor="middle">AMAZONA</text>
    
    <text x="250" y="345" font-family="Segoe UI, Arial, sans-serif" font-size="22" font-weight="500" fill="#3498db" text-anchor="middle" letter-spacing="2">CLOUDY MS</text>
</svg>
